<svg id="b5b4e626-bb7c-4991-8626-1d7826b023f3" data-name="Layer 1" xmlns="http://www.w3.org/2000/svg" width="480" height="480" viewBox="0 0 480 480">
  <g>
    <path d="M250,489.5A239.5,239.5,0,0,1,80.65,80.65a239.5,239.5,0,1,1,338.7,338.7A237.91,237.91,0,0,1,250,489.5Z" transform="translate(-10 -10)" fill="#fff"/>
    <path d="M250,11a239.06,239.06,0,0,1,93,459.22A239.06,239.06,0,0,1,157,29.78,237.55,237.55,0,0,1,250,11m0-1C117.45,10,10,117.45,10,250S117.45,490,250,490,490,382.55,490,250,382.55,10,250,10Z" transform="translate(-10 -10)"/>
  </g>
  <g>
    <path d="M250,479.5A229.5,229.5,0,0,1,87.72,87.72,229.5,229.5,0,1,1,412.28,412.28,228,228,0,0,1,250,479.5Z" transform="translate(-10 -10)" fill="#fff"/>
    <path d="M250,21a229.06,229.06,0,0,1,89.14,440A229.06,229.06,0,0,1,160.86,39,227.4,227.4,0,0,1,250,21m0-1C123,20,20,123,20,250S123,480,250,480,480,377,480,250,377,20,250,20Z" transform="translate(-10 -10)"/>
  </g>
  <line x1="10" y1="240" x2="470" y2="240" fill="#fff" stroke="#000" stroke-miterlimit="10"/>
  <polyline points="334.5 261.29 377.5 139.29 456.17 320.5 24.57 320.5 72.5 172.29 121.5 271.29" fill="#fff" stroke="#000" stroke-miterlimit="10"/>
  <polyline points="342.08 240 279.5 103.5 223.5 283.5" fill="#fff" stroke="#000" stroke-miterlimit="10"/>
  <path d="M254.67,225.45" transform="translate(-10 -10)" fill="#fff" stroke="#000" stroke-miterlimit="10"/>
  <polyline points="82.26 192.22 123.5 119.5 186.44 144.43" fill="#fff" stroke="#000" stroke-miterlimit="10"/>
  <polyline points="202.5 297.5 138.5 162.5 106.09 241.29" fill="#fff" stroke="#000" stroke-miterlimit="10"/>
  <polyline points="158.57 204.27 212.5 88.5 263.94 153.5" fill="#fff" stroke="#000" stroke-miterlimit="10"/>
  <path d="M558.5,124.5" transform="translate(-10 -10)" fill="#fff" stroke="#000" stroke-miterlimit="10"/>
  <polyline points="320.17 192.22 342.08 162.5 361.98 183.52" fill="#fff" stroke="#000" stroke-miterlimit="10"/>
  <g>
    <path d="M97.66,335.81a31.64,31.64,0,0,1,4.57,6.21c2,3.44,2.15,5.86.65,8.27-1.08,1.94-3.48,3.72-7.39,5-4.78,1.55-10.18,1.1-14.08-1.56l-.15,0c.52,3.2-1.22,7.79-8.53,10.26a20,20,0,0,1-11.74.41c-4.68-1.38-8.65-4.94-12-11a40.84,40.84,0,0,1-3.32-7.62Zm-19.48,8.28c.66,1.23,1.33,2.44,2,3.65,2.4,4.24,7.49,5.55,12.33,4.1,5.9-1.76,6.73-4.79,4.69-8.37A13.43,13.43,0,0,0,95,340.39Zm-25,5.51a19.52,19.52,0,0,0,1.81,4c2.66,4.8,7.75,8.28,15,6.05,6.84-2.11,7.44-6.51,4.94-11-.64-1.14-1.27-2.28-1.89-3.43Z" transform="translate(-10 -10)"/>
    <path d="M86.43,365.56c4.11-1.51,7.6-2.85,10.76-4.16.72,1,1.44,2.05,2.18,3.05l-6.66,2.78.12.16c5.28-.9,9.67-.05,11.4,2.15a2.7,2.7,0,0,1,.54,1l-5.71,2.58a4.13,4.13,0,0,0-.72-1.26c-1.88-2.41-6.49-2.84-11.55-1.5a28.45,28.45,0,0,0-3,1l-18.28,7.28q-1.53-2.11-3-4.26Z" transform="translate(-10 -10)"/>
    <path d="M106.08,398.35c-10.83,7.28-20.77,5.39-25.43.23-5.23-5.76-2.41-13.55,8.09-18.32,11.13-5.05,20.75-4.15,24.94.37C118,385.32,115,392.33,106.08,398.35ZM92,383.82c-7.12,3.5-10.23,8.88-6.89,12.55s10.71,3.05,17.48-1.2c5.1-3.2,10.16-8.59,6.79-12.22S98.16,380.77,92,383.82Z" transform="translate(-10 -10)"/>
    <path d="M136,389.54l-8,6q2.21,1.89,4.45,3.7l-3.71,3q-2.32-1.87-4.6-3.83l-15,11.33c-3.46,2.6-4.71,4.7-2.62,6.46a9,9,0,0,0,2.51,1.53l-3.5,3.12a11,11,0,0,1-4.08-2.3c-1.78-1.52-2.45-3.34-1.93-5.15.46-2.05,2.64-4.19,6-6.59l15.56-11.11c-.89-.8-1.77-1.61-2.65-2.43l4-2.74c.85.79,1.71,1.57,2.57,2.34l6.83-4.88Q134,388.84,136,389.54Z" transform="translate(-10 -10)"/>
    <path d="M148.19,391.53c.95.72,1.91,1.43,2.87,2.13L135.3,408.12l.08.06a14.59,14.59,0,0,1,5.58-1.29,7.92,7.92,0,0,1,4.62,1.08c2.39,1.64,4.46,6.15-3.2,14.88l-13.35,15q-2.09-1.29-4.14-2.63,6.66-7.09,13.33-14.17c3.73-4,5.73-8.06,2.55-10.23-2.18-1.49-6-.79-9.09,1a11.52,11.52,0,0,0-2.43,1.84l-15.24,14c-1.32-1-2.64-2-4-3Z" transform="translate(-10 -10)"/>
    <path d="M147.9,431c-5.05,6.47-3.53,11.15.76,13.3A14.54,14.54,0,0,0,156.1,446c-.54,1.32-1.06,2.63-1.59,3.95a18.49,18.49,0,0,1-9.14-2.15c-7.47-3.81-7.37-11.63-.81-19.33s15-11.87,20.48-9.1c6.19,3.08,3,11.78-.21,17-.65,1-1.24,1.81-1.61,2.31Q155.42,435.13,147.9,431Zm13.95,2.34c2.15-3.18,4.4-8.57.38-10.59-3.59-1.83-8.66,1.72-11.59,4.86C154.32,429.61,158.07,431.52,161.85,433.31Z" transform="translate(-10 -10)"/>
    <path d="M172,434.56c1.94-3.34,3.56-6.23,5-8.93,1.06.44,2.11.87,3.18,1.29l-3,5.68.17.07c3.07-3.48,6.54-5.09,9-4.23a2.78,2.78,0,0,1,1,.55l-2.43,5a4.4,4.4,0,0,0-1.21-.64c-2.66-.95-6,1.12-8.72,4.83a24,24,0,0,0-1.5,2.37l-8.32,15.33q-2.22-.87-4.43-1.8Z" transform="translate(-10 -10)"/>
    <path d="M179.37,454.67a9.18,9.18,0,0,0,5,4,4.93,4.93,0,0,0,6.51-3.11c1-2.64.26-4.4-2.26-6.82-3.4-3.18-3.92-6.77-2.3-10.31,2.21-4.76,6.62-7.77,11-6.52a7.74,7.74,0,0,1,4.39,3.26q-1.17,1.89-2.38,3.78a6.43,6.43,0,0,0-3.71-3c-2.26-.65-4.3.8-5.25,3-1,2.47-.21,4,2.15,6.34,3.15,3.12,4.36,6.27,2.82,10.83-1.78,5.36-6.59,8.31-12.7,6.48a11.42,11.42,0,0,1-6.2-4.3C177.39,457.15,178.38,455.91,179.37,454.67Z" transform="translate(-10 -10)"/>
    <path d="M240,427.06q-.53,9.35-1,18.68c5,.26,10,.33,15,.21q-.47-9.37-.94-18.74c1.17,0,2.34-.08,3.51-.13l3.54,44.78q-2.4.11-4.8.15-.52-10.5-1.06-21-7.77.18-15.53-.23-.58,10.46-1.18,20.92c-1.57-.08-3.15-.19-4.73-.31q1.89-22.26,3.76-44.52C237.73,426.94,238.89,427,240,427.06Z" transform="translate(-10 -10)"/>
    <path d="M287.47,452.35c3.35,11.67-2,18-8.48,18.73-7.24.87-13.52-5.19-14.57-15.34-1.11-10.76,2.78-17.35,8.5-18.09C278.85,436.89,284.7,442.69,287.47,452.35Zm-18.69,2.85c1,7,5,12.06,9.59,11.5s6.57-6.27,4.77-13.41c-1.35-5.39-4.86-11.87-9.46-11.27S267.93,449.09,268.78,455.2Z" transform="translate(-10 -10)"/>
    <path d="M290.67,444.37c-1-3.25-1.89-5.9-2.83-8.47,1.11-.23,2.22-.47,3.32-.72.63,1.66,1.25,3.33,1.88,5l.14,0c.21-3.25,1.15-6.45,4.53-7.35,2.79-.75,6,1.15,8.52,4.47l.09,0a12.47,12.47,0,0,1,.54-4.69,5.17,5.17,0,0,1,3.48-3.61c2.64-.9,8,.18,13.9,10.38l9.91,17.37c-1.47.57-2.95,1.11-4.43,1.65l-9.05-16.87c-3.09-5.73-6.4-8.62-9.45-7.59-2.15.72-2.76,3.57-2.22,6.48a13.75,13.75,0,0,0,.93,2.87q4.27,9.42,8.53,18.83-2.26.69-4.53,1.32L306.19,445c-2.08-4.89-5.06-8-8-7.24-2.41.63-3.18,3.87-2.86,6.86a11.52,11.52,0,0,0,.62,2.85l6.45,18.85c-1.52.34-3.06.67-4.59,1Q294.24,455.82,290.67,444.37Z" transform="translate(-10 -10)"/>
    <path d="M335.18,439.24c4.65,7.05,10.33,8.33,14.65,6.22a11.3,11.3,0,0,0,5.35-4.7l3.55,3.19a14.45,14.45,0,0,1-6.64,5.75c-7.57,3.62-15.78-.49-21.08-9.29s-6-17.15-.48-19.83c6.18-3,14.19,3.74,18.3,8.75.82,1,1.37,1.84,1.74,2.37Q343,435.81,335.18,439.24Zm9-9.19c-2.44-3.23-7.25-7.63-11.28-5.66-3.64,1.74-2.1,7.31-.07,11.09Q338.54,432.95,344.14,430.05Z" transform="translate(-10 -10)"/>
    <path d="M344.55,413.92q7.2,6,14.68,11.79c3.28,2.55,6.37,4.88,9.3,7.3l.14-.08c-2-2.94-3.89-6.17-5.87-9.36q-4.64-7.65-9.67-15.08l2.77-1.9q7.94,5.22,16.2,10.19c4,2.38,7.42,4.48,10.67,6.56l.13-.09c-2.41-2.7-4.74-5.64-7.34-8.94q-5.52-7.05-11.37-13.89c1-.82,2.08-1.66,3.1-2.5q11.73,13.66,22,28.25-1.81,1.36-3.64,2.68-8.1-4.58-15.92-9.41c-3.63-2.27-6.78-4.35-10.29-7l-.08.05a103.46,103.46,0,0,1,6.67,9.53q4.4,7.13,8.41,14.41c-1.26.79-2.52,1.58-3.8,2.35q-15.46-11-29.61-22.85C342.22,415.28,343.39,414.61,344.55,413.92Z" transform="translate(-10 -10)"/>
    <path d="M401.05,390.81c12.41,6.91,12.77,15.31,7.75,20-5.61,5.27-15.91,4.46-25.08-2.72C374,400.47,372,393,376.34,388.77,380.89,384.42,390.78,385.09,401.05,390.81ZM387,405c6.54,4.82,14.1,6.22,17.67,2.85s.67-9.08-6.7-13.46c-5.55-3.32-13.91-6.07-17.44-2.68S381.32,400.76,387,405Z" transform="translate(-10 -10)"/>
    <path d="M419.49,368c13.91,5.11,15.58,13.61,11.13,19.13-5,6.2-15.71,6.92-26.31,1-11.24-6.25-14.55-13.51-10.68-18.44C397.64,364.61,408,363.77,419.49,368Zm-12.28,16.5c7.52,3.9,15.54,4.17,18.7.21s-.73-9.32-9-12.64c-6.25-2.52-15.33-4-18.44-.05S400.67,381.11,407.21,384.5Z" transform="translate(-10 -10)"/>
    <path d="M395.59,334.32,444.84,345c3.62.78,7.77,1.62,10.63,2q-1.14,2.22-2.32,4.41L446,350l-.06.11c3.73,2.5,5.32,6.63,2.79,10.86-3.8,6.34-14.65,8.11-26.08,3.93-12.54-4.54-17.57-11.31-14.68-16.26,1.85-3.15,5.93-4.63,9.72-4.86l0-.09-24-5.83C394.39,336.68,395,335.51,395.59,334.32Zm33.32,12.05a22.78,22.78,0,0,0-3.17-.56c-5-.49-10,.75-11.69,3.66-2.32,4,2.54,8.36,11,11.19,7.75,2.58,15.77,2.32,18.73-2.68,1.82-3.09.19-6.81-4.85-9a18.58,18.58,0,0,0-3.05-1Z" transform="translate(-10 -10)"/>
  </g>
  <circle cx="235" cy="260" r="49"/>
  <text transform="translate(190.04 264.37)" font-size="12" fill="none" stroke="#fff" stroke-miterlimit="10" font-family="MyriadPro-Regular, Myriad Pro"><tspan letter-spacing="0em">S</tspan><tspan x="5.88" y="0" letter-spacing="-0.01em">t</tspan><tspan x="9.78" y="0" letter-spacing="0em">e</tspan><tspan x="15.79" y="0" letter-spacing="0em">w</tspan><tspan x="24.58" y="0">a</tspan><tspan x="30.36" y="0" letter-spacing="-0.01em">r</tspan><tspan x="34.16" y="0" letter-spacing="0em">dship</tspan></text>
  <text transform="translate(220.83 239.54)" font-size="12" fill="none" stroke="#fff" stroke-miterlimit="10" font-family="MyriadPro-Regular, Myriad Pro"><tspan letter-spacing="0.01em">I</tspan><tspan x="2.99" y="0" letter-spacing="0em">n</tspan><tspan x="9.6" y="0" letter-spacing="-0.01em">t</tspan><tspan x="13.5" y="0">e</tspan><tspan x="19.51" y="0" letter-spacing="-0.01em">g</tspan><tspan x="26.15" y="0" letter-spacing="-0.01em">r</tspan><tspan x="29.95" y="0">e</tspan><tspan x="35.96" y="0" letter-spacing="0.01em">t</tspan><tspan x="40.04" y="0" letter-spacing="0em">y</tspan></text>
  <text transform="translate(226.16 287.83)" font-size="12" fill="none" stroke="#fff" stroke-miterlimit="10" font-family="MyriadPro-Regular, Myriad Pro"><tspan letter-spacing="0em">R</tspan><tspan x="6.5" y="0">espe</tspan><tspan x="30.11" y="0" letter-spacing="0.01em">c</tspan><tspan x="35.64" y="0">t</tspan></text>
</svg>
